<svg xmlns="http://www.w3.org/2000/svg" xmlns:xlink="http://www.w3.org/1999/xlink" width="430" zoomAndPan="magnify" viewBox="0 0 322.5 142.499996" height="190" preserveAspectRatio="xMidYMid meet" version="1.0"><defs><g/></defs><g fill="#a42e40" fill-opacity="1"><g transform="translate(3.515231, 136.598996)"><g><path d="M 17.640625 0 L 17.640625 -109.34375 L 1.578125 -109.34375 L 1.578125 -135.34375 L 60.8125 -135.34375 L 60.8125 -109.34375 L 44.75 -109.34375 L 44.75 0 Z M 17.640625 0 "/></g></g></g><g fill="#a42e40" fill-opacity="1"><g transform="translate(58.497098, 136.598996)"><g><path d="M 5.984375 -135.34375 L 47.578125 -135.34375 C 54.203125 -135.34375 59.320312 -133.84375 62.9375 -130.84375 C 66.5625 -127.851562 69.003906 -123.65625 70.265625 -118.25 C 71.523438 -112.84375 72.15625 -105.9375 72.15625 -97.53125 C 72.15625 -89.863281 71.15625 -83.875 69.15625 -79.5625 C 67.164062 -75.257812 63.703125 -72.269531 58.765625 -70.59375 C 62.867188 -69.75 65.835938 -67.695312 67.671875 -64.4375 C 69.515625 -61.1875 70.4375 -56.773438 70.4375 -51.203125 L 70.109375 0 L 43.640625 0 L 43.640625 -52.9375 C 43.640625 -56.71875 42.90625 -59.132812 41.4375 -60.1875 C 39.96875 -61.238281 37.289062 -61.765625 33.40625 -61.765625 L 33.40625 0 L 5.984375 0 Z M 40.015625 -85.234375 C 43.796875 -85.234375 45.6875 -89.332031 45.6875 -97.53125 C 45.6875 -101.101562 45.53125 -103.78125 45.21875 -105.5625 C 44.90625 -107.351562 44.328125 -108.585938 43.484375 -109.265625 C 42.648438 -109.953125 41.441406 -110.296875 39.859375 -110.296875 L 33.5625 -110.296875 L 33.5625 -85.234375 Z M 40.015625 -85.234375 "/></g></g></g><g fill="#a42e40" fill-opacity="1"><g transform="translate(126.240036, 136.598996)"><g><path d="M 37.34375 1.265625 C 26.207031 1.265625 17.929688 -1.882812 12.515625 -8.1875 C 7.109375 -14.488281 4.40625 -23.835938 4.40625 -36.234375 L 4.40625 -135.34375 L 30.71875 -135.34375 L 30.71875 -37.34375 C 30.71875 -33.03125 31.140625 -29.664062 31.984375 -27.25 C 32.828125 -24.84375 34.613281 -23.640625 37.34375 -23.640625 C 40.070312 -23.640625 41.851562 -24.816406 42.6875 -27.171875 C 43.53125 -29.535156 43.953125 -32.925781 43.953125 -37.34375 L 43.953125 -135.34375 L 70.265625 -135.34375 L 70.265625 -36.234375 C 70.265625 -23.835938 67.5625 -14.488281 62.15625 -8.1875 C 56.75 -1.882812 48.476562 1.265625 37.34375 1.265625 Z M 37.34375 1.265625 "/></g></g></g><g fill="#a42e40" fill-opacity="1"><g transform="translate(193.510355, 136.598996)"><g><path d="M 5.984375 0 L 5.984375 -135.34375 L 33.09375 -135.34375 L 33.09375 -23 L 60.984375 -23 L 60.984375 0 Z M 5.984375 0 "/></g></g></g><g fill="#a42e40" fill-opacity="1"><g transform="translate(248.649754, 136.598996)"><g><path d="M 22.375 0 L 22.375 -44.59375 L 0.78125 -135.34375 L 27.578125 -135.34375 L 35.140625 -89.5 L 42.703125 -135.34375 L 69.484375 -135.34375 L 47.90625 -44.59375 L 47.90625 0 Z M 22.375 0 "/></g></g></g></svg>